Patient4_TMGait_0pt6_02_right_46_EMG.mot
version=1
nRows=23
nColumns=33
inDegrees=no
endheader
time	1LAddLong	2LGlutMax	3LGlutMed	4LIliopsoas	5LSemiMemb	6LBicFemLong	7LRecFem	8LVastMed	9LVastLat	10LGasMed	11LTibAnt	12lTibPost	13LPeroneusLong	14LSol	15LExtDigLong	16LFlexDigLong	17RAddLong	18RGlutMax	19RGlutMed	20RIliopsoas	21RSemiMemb	22RBicFemLong	23RRecFem	24RVastMed	25RVastLat	26RGasMed	27RTibAnt	28RTibPost	29RPeroneusLong	30RSol	31RExtDigLong	32RFlexDigLong
56.39	0.014954	0.34927	0.15198	0.002594	0.058594	-0.030823	0.19531	-0.03067	-0.088501	-0.023956	0.002594	-0.01236	-0.089722	-0.029907	-0.055084	-0.001984	-0.006714	-0.30075	-0.18982	0.011749	0.069122	-0.11536	-0.51682	0.001373	0.040894	0.007172	-0.053711	-0.014648	0.084839	-0.09903	-0.002594	-0.00946
56.391	0.009918	0.39444	0.055847	0.012054	0.05249	0.057678	0.20218	-0.013885	-0.049744	-0.010834	0.017853	-0.016632	-0.051575	-0.033569	-0.040436	-0.00824	0.009003	-0.27573	-0.27115	0.005646	0.068665	-0.16953	-0.47669	-0.038605	0.061951	0.006561	-0.064392	-0.011749	0.023956	-0.06546	-0.003967	-0.012054
56.392	-0.001678	0.38132	-0.003662	0.00946	0.020599	0.2684	0.16098	-0.001373	0.088959	0.000916	-0.008392	-0.015869	-0.0354	-0.031433	-0.020142	0.002594	0.044403	-0.27832	-0.35278	-0.079803	0.086517	-0.13397	-0.40222	-0.041962	0.02121	0.007935	-0.12482	-0.015411	0.007019	-0.036163	-0.002441	-0.020447
56.393	-0.023651	0.37399	-0.12619	-0.001984	-0.006714	0.35553	0.14587	0.009155	0.12665	0.005493	0.005493	-0.0177	-0.098877	0.001526	0.002747	0.002747	0.057678	-0.26581	-0.39322	-0.036163	0.063324	-0.12482	-0.38147	-0.076904	-0.005341	0.010376	-0.22034	-0.00885	0.14801	0.00412	-0.001068	-0.018311
56.394	-0.0383	0.37155	-0.14114	0.012817	-0.043945	0.14618	0.15274	0.024719	0.13916	0.002594	-0.008392	-0.018311	-0.11383	-0.013733	0.002747	0.011597	0.054169	-0.29495	-0.28107	0.068207	0.001678	-0.074615	-0.43366	-0.038757	-0.001831	0.013275	-0.22583	-0.010376	0.16388	0.007782	0.000763	-0.021667
56.395	-0.032806	0.3595	-0.093384	-0.000916	-0.083618	-0.016479	0.1648	0.019073	0.14343	-0.005798	-0.032501	-0.006866	0.00061	0.018768	0.019836	0.008392	0.052948	-0.20187	-0.19989	0.14664	-0.047302	-0.053711	-0.42862	-0.046844	-0.008698	0.017242	-0.099945	-0.013885	0.06424	-0.02243	0.003052	-0.023499
56.396	-0.018463	0.46188	0.057678	-0.005188	-0.11963	0.035858	0.14694	0.014343	0.058441	-0.010986	-0.00351	-0.011902	0.18051	0.047913	0.032654	0.00473	0.036469	-0.10742	-0.28885	0.097961	0.026703	-0.076752	-0.45242	-0.016785	0.005493	0.014343	0.061035	-0.005798	-0.13016	0.021667	-0.00351	-0.028229
56.397	-0.016327	0.49698	0.12802	-0.001373	-0.097504	0.009308	0.085144	0.01236	0.09613	0.000916	0.004578	-0.018768	0.29037	0.046844	-0.002441	-0.001984	-0.003357	-0.22308	-0.31937	0.065765	0.12253	-0.066833	-0.46936	-0.032349	0.022125	0.01297	0.15366	-0.006714	-0.32242	0.072479	-0.002136	-0.016937
56.398	0.005341	0.52658	0.01709	0.00885	-0.037537	-0.11017	0.000763	0.004578	-0.028381	-0.030365	0.005188	-0.011292	0.35416	0.083923	0.003815	-0.00473	-0.027008	-0.22553	-0.43945	0.003052	0.11307	-0.058746	-0.48111	-0.030975	0.022278	-0.001526	0.27374	-0.003357	-0.27695	0.11276	-0.001068	-0.01236
56.399	0.022125	0.439	-0.005341	0.011902	0.056458	-0.11185	0.020599	-0.003357	-0.11231	-0.048523	0.032196	-0.021515	-0.050964	0.076752	0.018921	0.003662	-0.039978	-0.18677	-0.35828	-0.058594	0.087738	-0.044861	-0.49088	-0.063019	0.022583	0.006409	0.10529	-0.005646	-0.1799	0.051575	-0.000305	-0.004425
56.4	0.025177	0.39612	0.028381	0.017853	0.14313	-0.074463	0.062256	-0.027618	-0.11154	-0.021667	0.067444	-0.015564	-0.046539	0.034637	-0.027313	0.006256	-0.0383	-0.20798	-0.22614	-0.07843	0.092316	-0.096283	-0.50995	-0.070953	0.028534	0.001831	-0.070038	-0.007629	0.033722	0.052032	-0.003357	-0.004578
56.401	0.033875	0.33218	0.069122	0.009766	0.12146	-0.1651	0.058136	-0.024414	0.070801	-0.01297	0.073395	-0.007782	-0.062714	-0.006104	-0.09613	-0.000153	-0.058746	-0.2121	-0.14221	-0.047913	0.10376	-0.16113	-0.45013	-0.049591	0.003967	-0.005493	-0.085907	-0.003967	0.22751	0.040741	-0.002747	-0.014648
56.402	0.020905	0.33981	0.00946	-0.007019	0.046692	-0.16861	0.011597	-0.02594	0.1767	-0.0177	-0.005035	-0.013428	-0.21072	0.002899	-0.083618	0	-0.088654	-0.20676	-0.15961	-0.010529	0.092468	-0.037537	-0.48294	-0.0383	0.02182	-0.001831	-0.050049	-0.001526	0.33447	0.069122	-0.00824	-0.008087
56.403	0.00061	0.37445	0.015717	0.007019	-0.041504	-0.12161	-0.085602	-0.01236	0.22079	-0.01297	-0.048218	-0.019073	-0.15701	0.073853	0.001984	0.006409	-0.080719	-0.17014	-0.15884	-0.003357	0.095673	0.11932	-0.44876	-0.074921	0.004272	-0.018311	-0.032349	-0.002899	0.19348	0.090179	-0.009613	-0.017853
56.404	0.012512	0.44601	0.096588	-0.000153	-0.043182	-0.18097	-0.14084	-0.014648	0.067291	-0.037994	-0.036774	-0.013428	-0.024261	0.071106	0.002747	0.00412	-0.04364	-0.11429	-0.16937	-0.053406	0.10162	0.079651	-0.43625	-0.095062	-0.021515	-0.012207	-0.023651	-0.005798	0.056763	0.056915	-0.001831	-0.020599
56.405	0.015411	0.43427	0.019989	-0.011902	0.000305	-0.26459	-0.21347	-0.020752	-0.18433	-0.014343	-0.054626	-0.002594	-0.070343	-0.033417	-0.1152	0.004578	-0.008087	-0.24231	-0.21332	0.000305	0.10834	0.060577	-0.448	-0.042725	-0.005341	-0.005798	-0.008392	-0.00473	-0.003815	0.0177	-0.006866	-0.026703
56.406	0.018005	0.44922	-0.088959	-0.016937	0.06546	-0.14313	-0.12604	-0.018768	-0.18662	-0.018768	-0.058289	-0.015106	0.099182	-0.058746	-0.052643	0.007019	0.022125	-0.25696	-0.21378	0.037537	0.14023	0.12009	-0.40131	-0.058136	0.002136	0.009003	0.001221	-0.002747	-0.019684	-0.005646	-0.007477	-0.023651
56.407	0.035706	0.42664	-0.18051	0.002441	0.15732	0.018158	-0.045776	-0.022736	0.032501	-0.012817	-0.036926	-0.001678	0.040894	-0.048828	0.082397	-0.013123	0.017853	-0.23529	-0.20523	0.003662	0.16617	-0.005341	-0.41397	-0.016327	-0.010223	0.003815	0.022736	0.000305	0.084534	-0.013733	0.000458	-0.034485
56.408	0.012665	0.38208	-0.19898	0.020752	0.13641	0.068512	0.020294	-0.009613	0.003052	-0.01297	-0.029449	-0.007172	0.076141	-0.062408	0.085754	-0.006409	0.005798	-0.19028	-0.14938	0.033875	0.1387	-0.070801	-0.43594	-0.003967	0.000305	-0.000916	0.093231	0.007629	0.12924	0.002899	0.001373	-0.039368
56.409	-0.004578	0.39291	-0.053253	0.034943	0.082092	0.15961	0.041046	-0.004425	-0.11993	-0.007019	-0.005341	0.004272	-0.001068	-0.084076	0.046692	0.00351	0.033112	-0.15839	-0.048523	-0.044403	0.1178	-0.010681	-0.40741	-0.055847	0.004425	-0.00473	0.11078	0.007172	0.10101	-0.02243	-0.001831	-0.03067
56.41	-0.031281	0.42236	0.13458	0.032806	0.018005	0.20523	0.037231	0.010986	-0.21622	-0.00351	0.002289	0.006104	-0.18326	-0.057983	-0.058746	0.001526	0.046692	-0.084076	0.042877	-0.091248	0.087585	0.015564	-0.41809	-0.036163	0.008087	-0.009003	0.1033	0.004272	0.068512	-0.059662	0.000305	-0.041199
56.411	-0.050201	0.37674	0.30395	0.027618	-0.070343	0.29831	0.013885	0.01236	-0.22064	0.013885	-0.001984	0.013428	-0.10498	-0.04776	-0.073395	0.004272	0.032806	-0.11932	-0.04425	-0.063477	0.06424	-0.006866	-0.50415	-0.044861	0.00885	-0.001068	-0.16083	0.004425	0.14069	-0.0354	-0.00061	-0.041199
56.412	-0.046997	0.30136	0.33295	-0.000458	-0.060425	0.19241	-0.021362	0.011444	-0.12085	0.03891	0.001831	0.018616	-0.15976	0.051727	-0.015411	0.010071	0.026398	-0.11688	-0.11429	-0.000305	0.085754	0.037079	-0.48126	-0.023499	0.039215	-0.012512	-0.15945	0.000763	-0.04715	-0.034027	-0.001678	-0.034485
